<svg width="200" height="200" viewBox="0 0 200 200" fill="none" xmlns="http://www.w3.org/2000/svg">
<g clip-path="url(#clip0_12_1724)">
<path d="M128.117 61.3421C127.68 62.136 127.049 62.8172 126.278 63.3279C125.507 63.8385 124.619 64.1635 123.689 64.2753C122.191 64.2753 120.36 63.0319 120.593 61.4377C120.622 61.3916 120.664 61.3535 120.714 61.3271C120.763 61.3007 120.819 61.2869 120.876 61.2869C120.932 61.2869 120.988 61.3007 121.038 61.3271C121.087 61.3535 121.129 61.3916 121.159 61.4377C122.058 62.458 122.624 63.1913 124.089 63.3507C124.842 63.3774 125.587 63.1924 126.232 62.8185C126.877 62.4445 127.393 61.8981 127.718 61.2464C127.884 61.0551 128.217 61.2464 128.117 61.4696L128.117 61.3421Z" fill="black"/>
<path d="M121.092 62.9361C118.313 55.5046 113.644 48.8533 107.508 43.5833C102.88 39.8211 99.5502 37.3981 97.3194 31.8505C94.3895 24.4218 87.3311 22.0625 81.5046 17.1207C76.6917 12.7444 72.444 7.83124 68.8526 2.48654C68.8066 2.37361 68.8015 2.24917 68.838 2.13311C68.8746 2.01705 68.9507 1.91607 69.0542 1.84631C69.1577 1.77655 69.2827 1.74203 69.4091 1.74828C69.5355 1.75452 69.6561 1.80117 69.7516 1.88077C73.9681 8.08568 79.0668 13.6978 84.9006 18.5554C89.8615 22.3176 95.3551 24.0073 97.8854 29.8419C99.1638 33.9021 101.624 37.5295 104.977 40.2994C107.502 42.1636 109.893 44.1873 112.135 46.3571C116.707 50.9585 119.904 56.6513 121.391 62.8404C121.391 63.0317 121.192 63.1274 121.092 62.8404L121.092 62.9361Z" fill="black"/>
<path d="M69.8185 2.67795C69.3697 2.00757 68.7938 1.42361 68.1205 0.956284C67.4186 0.559977 66.5894 0.423855 65.7898 0.573692L65.7898 0.31863C67.4879 -0.829146 69.3524 1.33888 70.218 2.48665C70.218 2.48665 70.0515 2.83736 69.9184 2.67795L69.8185 2.67795Z" fill="black"/>
<path d="M66.1229 0.76475C64.092 3.37913 68.2871 11.5411 69.0528 14.3787C69.8124 17.0578 70.292 19.8025 70.4845 22.5725C70.9173 29.4592 70.8175 36.282 71.4168 43.1687C71.4388 43.2533 71.4249 43.3428 71.3781 43.4175C71.3313 43.4922 71.2553 43.5461 71.167 43.5672C71.0787 43.5884 70.9853 43.5751 70.9072 43.5302C70.8292 43.4854 70.7729 43.4127 70.7509 43.3281C67.8875 35.7082 69.9185 27.0042 69.0196 19.0973C68.1673 14.2442 66.9771 9.45111 65.457 4.75008C65.0575 3.0603 64.658 1.94441 65.8566 0.541571C65.8566 0.382158 66.2561 0.541571 66.1229 0.76475Z" fill="black"/>
<path d="M71.6832 42.3399C70.676 48.2823 70.0312 54.2757 69.7522 60.2899C69.7522 65.5824 71.0506 70.843 70.8176 76.2312C70.3847 84.7758 62.5272 85.796 55.1359 87.7409C45.1728 90.6612 36.0545 95.7582 28.5003 102.63C24.7047 105.818 21.1422 109.23 17.1802 112.195C12.6521 115.574 2.79693 117.424 2.79693 124.215C2.7711 124.301 2.71651 124.377 2.64141 124.432C2.56632 124.486 2.47481 124.515 2.38075 124.515C2.28669 124.515 2.19519 124.486 2.12009 124.432C2.045 124.377 1.99041 124.301 1.96458 124.215C0.299849 116.308 12.1194 114.076 16.9138 110.346C25.0376 103.969 32.2293 96.7637 41.3187 91.7262C45.2459 89.5042 49.4679 87.799 53.8707 86.6568C61.2953 84.7439 69.4192 83.7555 69.3193 74.4777C69.3193 69.4083 68.2206 64.4665 68.5535 59.3653C69.0099 53.6297 69.9903 47.9435 71.4835 42.3718C71.4835 42.3295 71.501 42.289 71.5322 42.2591C71.5634 42.2292 71.6058 42.2124 71.6499 42.2124C71.6941 42.2124 71.7364 42.2292 71.7676 42.2591C71.7989 42.289 71.8164 42.3295 71.8164 42.3718L71.6832 42.3399Z" fill="black"/>
<path d="M70.3848 37.7171C70.7396 39.8254 70.8068 41.9688 70.5846 44.0937C70.5846 44.0937 70.2516 44.3168 70.2183 44.0937C69.8017 41.9932 69.6563 39.8516 69.7855 37.7171C69.7855 37.641 69.8171 37.568 69.8733 37.5142C69.9295 37.4604 70.0057 37.4302 70.0852 37.4302C70.1646 37.4302 70.2409 37.4604 70.2971 37.5142C70.3532 37.568 70.3848 37.641 70.3848 37.7171Z" fill="black"/>
<path d="M69.985 38.4185C70.8639 40.9132 71.0362 43.5866 70.4844 46.1659L70.2181 46.1659C70.0183 44.8906 70.2181 43.5834 70.0516 42.3081C69.8851 41.0328 69.8519 39.7256 69.6854 38.4503L69.985 38.4503L69.985 38.4185Z" fill="black"/>
<path d="M70.7838 40.4591C71.2807 42.9919 71.1553 45.6007 70.4176 48.0791L70.118 48.0791C70.118 46.9632 70.118 45.8792 70.118 44.8908C70.118 43.9025 70.118 42.0533 70.118 40.6185C70.118 40.5678 70.139 40.5191 70.1765 40.4833C70.2139 40.4474 70.2647 40.4272 70.3177 40.4272C70.3707 40.4272 70.4215 40.4474 70.459 40.4833C70.4964 40.5191 70.5175 40.5678 70.5175 40.6185L70.7838 40.4591Z" fill="black"/>
<path d="M70.3846 40.4268C70.7075 43.038 70.629 45.6805 70.1516 48.2699C70.1516 48.3206 70.1305 48.3693 70.093 48.4052C70.0556 48.441 70.0048 48.4612 69.9518 48.4612C69.8988 48.4612 69.848 48.441 69.8105 48.4052C69.7731 48.3693 69.752 48.3206 69.752 48.2699C69.4845 45.6509 69.6191 43.0084 70.1516 40.4268C70.1516 40.4268 70.3846 40.4268 70.3846 40.4268Z" fill="black"/>
<path d="M70.418 42.3721C70.3116 47.7231 69.7324 53.0559 68.6867 58.3134C68.6867 58.4728 68.387 58.4728 68.387 58.3134C68.1577 52.9437 68.7636 47.5711 70.1849 42.3721L70.418 42.3721Z" fill="black"/>
<path d="M70.4177 38.2588C70.6674 40.6014 70.6674 42.9623 70.4177 45.3049C70.4177 45.3049 70.4177 45.3049 70.2179 45.3049C69.9293 42.9654 69.9069 40.6029 70.1513 38.2588L70.451 38.2588L70.4177 38.2588Z" fill="black"/>
<path d="M118.828 57.0698C119.061 57.7712 119.294 58.4726 119.56 59.1421C119.827 59.8117 120.226 60.5131 120.426 61.2145C120.426 61.3739 120.226 61.5015 120.126 61.2145C119.353 59.9065 118.855 58.4658 118.661 56.9741C118.661 56.9741 118.661 56.9741 118.828 56.9741L118.828 57.0698Z" fill="black"/>
<path d="M118.994 58.0262C119.327 58.8551 119.727 59.6522 120.126 60.4492C120.62 61.1984 121.043 61.9879 121.391 62.8086C120.172 61.4128 119.336 59.7467 118.961 57.9624C118.961 57.9624 118.961 57.9624 118.961 57.9624L118.994 58.0262Z" fill="black"/>
<path d="M119.76 60.0988C120.047 60.4946 120.303 60.9102 120.526 61.3422C120.8 61.7429 121.003 62.1848 121.125 62.6494C121.125 62.6494 121.125 62.6494 121.125 62.6494C120.846 62.3235 120.621 61.9577 120.459 61.5654C120.226 61.0871 119.993 60.577 119.793 60.0669L119.76 60.0988Z" fill="black"/>
<path d="M121.026 62.7129C120.398 61.991 119.954 61.1398 119.727 60.2261C119.727 60.2261 119.727 60.2261 119.727 60.2261C119.727 60.2261 120.093 61.0231 120.293 61.4057C120.493 61.7883 120.793 62.2666 120.992 62.7129C121.192 63.1593 120.992 62.7129 120.992 62.7129L121.026 62.7129Z" fill="black"/>
<path d="M121.292 63.4465C120.21 62.5924 119.488 61.3916 119.261 60.0669C119.261 60.0669 119.261 60.0669 119.261 60.0669C119.56 60.6727 119.76 61.3103 120.126 61.9161C120.493 62.5219 120.892 62.9044 121.225 63.4465L121.292 63.4465Z" fill="black"/>
<path d="M121.492 62.713C121.159 62.0435 120.793 61.3421 120.393 60.6725C120.05 60.1372 119.738 59.5837 119.461 59.0146C120.411 60.1106 121.093 61.396 121.458 62.7768L121.492 62.713Z" fill="black"/>
<path d="M69.9518 35.0708C70.6488 36.8235 71.0206 38.6794 71.0505 40.5546C70.5511 38.7692 70.3513 36.8881 69.9185 35.1027L69.9518 35.0708Z" fill="black"/>
<path d="M70.4843 34.3374C71.5676 37.6703 71.7735 41.208 71.0836 44.6355L70.8839 44.6355C70.999 41.1986 70.7536 37.7593 70.1514 34.3693C70.1514 34.3693 70.1514 34.3693 70.3178 34.3693L70.4843 34.3374Z" fill="black"/>
<path d="M70.6509 36.0273C71.7898 38.4041 72.0368 41.0845 71.35 43.6154C71.35 42.4039 71.35 41.2561 71.35 40.0446C71.2108 38.7085 70.9547 37.3861 70.5843 36.0911L70.6509 36.0273Z" fill="black"/>
<path d="M69.2194 2.51826C69.047 2.44024 68.8931 2.32928 68.7671 2.19221C68.6411 2.05514 68.5458 1.89485 68.4869 1.72119C68.4869 1.72119 68.4869 1.72119 68.4869 1.72119C68.4869 1.72119 68.9197 2.29508 69.1528 2.55014C69.3858 2.8052 69.1528 2.55014 69.1528 2.55014L69.2194 2.51826Z" fill="black"/>
<path d="M69.1527 2.61411C68.7608 2.08568 68.2484 1.64957 67.6545 1.3388C67.4459 1.24851 67.2091 1.23781 66.9926 1.30891C66.7761 1.38001 66.596 1.52753 66.4892 1.7214C66.415 1.89262 66.287 2.03748 66.1229 2.13587C66.3893 1.49822 66.7888 0.860563 67.5879 0.988094C67.9932 1.10621 68.3611 1.3199 68.6578 1.60957C68.9545 1.89924 69.1704 2.25561 69.2859 2.64599C69.2859 2.64599 69.2859 2.64599 69.2859 2.64599L69.1527 2.61411Z" fill="black"/>
<path d="M66.3892 1.72134C66.0927 3.96925 66.3551 6.25245 67.155 8.38481C67.6542 9.71101 67.8473 11.125 67.721 12.5296C67.721 12.5296 67.5545 12.5296 67.5212 12.5296C67.0218 9.34129 64.9243 4.97337 66.3226 1.68945L66.3892 1.72134Z" fill="black"/>
<path d="M65.8233 1.88066C65.8233 2.5502 66.0231 3.21973 66.123 3.88927C66.3063 4.46879 66.4071 5.06935 66.4226 5.6747C66.4226 5.6747 66.1895 5.83411 66.123 5.6747C65.8323 5.10829 65.6733 4.48829 65.6568 3.85739C65.5742 3.17952 65.5742 2.49476 65.6568 1.81689C65.6568 1.81689 65.9232 1.81689 65.9565 1.81689L65.8233 1.88066Z" fill="black"/>
<path d="M66.2894 1.40277C66.248 2.13007 66.1591 2.85417 66.023 3.5708C66.023 3.82586 65.5569 3.76209 65.5902 3.5708C65.5902 2.58243 65.4237 1.37089 66.0563 0.382528C66.2561 0.0955839 66.6223 0.382528 66.5224 0.669472C66.3636 1.1997 66.1747 1.72123 65.9564 2.23172C65.9375 2.28054 65.9034 2.32263 65.8588 2.35236C65.8141 2.38209 65.7611 2.39803 65.7067 2.39803C65.6523 2.39803 65.5993 2.38209 65.5546 2.35236C65.51 2.32263 65.4759 2.28054 65.457 2.23172C65.4208 2.02854 65.4366 1.81998 65.503 1.62392C65.5694 1.42786 65.6845 1.25014 65.8383 1.10597C65.9921 0.961794 66.1802 0.855475 66.3863 0.796114C66.5924 0.736753 66.8105 0.726118 67.0218 0.76512C67.2216 0.76512 67.3881 1.08395 67.0218 1.24336C66.7705 1.4888 66.4626 1.67443 66.1229 1.78537C66.0882 1.80118 66.0499 1.80853 66.0115 1.80675C65.9731 1.80498 65.9358 1.79414 65.9028 1.77521C65.8699 1.75627 65.8423 1.72982 65.8226 1.69822C65.8029 1.66662 65.7917 1.63084 65.7899 1.59407C65.7899 -0.255125 69.419 0.573824 69.1194 2.00854C69.1194 2.00854 69.1194 2.00854 68.9529 2.00854C68.7281 1.72574 68.4585 1.47832 68.1538 1.27524C67.8542 1.11583 66.2894 0.637589 66.4558 1.49842L66.1229 1.27524C66.3997 1.18462 66.6428 1.01836 66.8221 0.797003L66.8221 1.27524C66.3227 1.11583 65.6235 1.27524 65.8565 2.07231L65.3571 2.07231C65.3571 1.5303 65.7233 0.988299 65.9231 0.446293L66.4891 0.733237C65.8565 1.30713 66.023 2.77373 66.023 3.50703L65.5902 3.50703C65.609 2.75089 65.7321 2.00045 65.9564 1.27524C65.9564 1.08395 66.3227 1.27524 66.2894 1.27524L66.2894 1.40277Z" fill="black"/>
<path d="M66.8232 0.446289C66.8406 0.475196 66.8498 0.507986 66.8498 0.541364C66.8498 0.574743 66.8406 0.607533 66.8232 0.63644C66.8232 0.63644 66.8232 0.63644 67.0217 0.63644L66.8232 0.446289Z" fill="black"/>
<path d="M65.79 0.542024C64.7912 1.05215 65.0908 2.23181 65.2573 3.09264C64.8578 2.48687 64.7912 0.478258 65.8899 0.510141L65.79 0.542024Z" fill="black"/>
<path d="M66.5225 1.62598C66.2638 1.99254 66.0828 2.40417 65.9897 2.83752C66.0674 2.40506 66.2374 1.99261 66.4892 1.62598L66.5225 1.62598Z" fill="black"/>
<path d="M102.048 93.6074C102.547 94.1494 102.88 94.819 103.446 95.361C104.012 95.903 105.51 97.1145 105.71 96.445C105.71 96.445 105.877 96.445 105.91 96.445C105.942 96.5047 105.96 96.5706 105.962 96.6378C105.964 96.705 105.95 96.7718 105.921 96.8331C105.892 96.8944 105.849 96.9487 105.795 96.9919C105.742 97.0351 105.678 97.0661 105.61 97.0826C105.144 97.0826 104.611 96.8276 104.245 96.5725C103.118 95.9171 102.287 94.8825 101.915 93.6712L102.048 93.6074Z" fill="black"/>
<path d="M105.51 96.6679C108.24 93.8941 103.812 85.9872 102.513 83.2134C100.61 79.0387 97.9371 75.2263 94.6226 71.9588C94.4229 71.7356 94.6226 71.3849 94.9556 71.6081C99.1397 75.5057 102.29 80.3045 104.145 85.6046C105.377 88.7929 108.906 94.1492 105.676 96.8273L105.51 96.6679Z" fill="black"/>
<path d="M94.8228 71.959C95.5946 76.3874 96.6171 80.7725 97.8859 85.0946C98.352 86.7207 98.8514 88.2829 99.3841 89.9408C99.7171 90.8654 100.017 91.79 100.383 92.6827C100.949 95.4884 102.913 96.1898 106.243 94.8189L106.509 94.8189C107.175 98.7085 102.447 97.1463 101.016 95.1377C99.2572 92.0634 98.0316 88.7362 97.3864 85.2859C95.9684 80.9624 95.0419 76.5049 94.623 71.9909L94.8228 71.9909L94.8228 71.959Z" fill="black"/>
<path d="M106.243 92.0132C106.539 92.5939 106.659 93.2427 106.588 93.8854C106.517 94.5282 106.259 95.1389 105.843 95.6478C106.465 94.5676 106.62 93.2973 106.276 92.1088L106.243 92.0132Z" fill="black"/>
<path d="M106.143 92.4595C106.304 92.7581 106.393 93.0877 106.402 93.4238C106.412 93.7598 106.342 94.0935 106.198 94.4001C106.054 94.7066 105.839 94.9781 105.57 95.1941C105.301 95.4102 104.985 95.5652 104.645 95.6478C103.895 95.7686 103.125 95.6024 102.503 95.1848C101.88 94.7673 101.453 94.132 101.315 93.416L101.482 93.416C102.081 94.4362 102.847 95.4883 104.245 95.4883C104.584 95.4695 104.914 95.3744 105.208 95.2107C105.502 95.047 105.752 94.8193 105.936 94.5461C106.121 94.2728 106.236 93.9617 106.272 93.638C106.308 93.3142 106.264 92.9869 106.143 92.6827L106.143 92.4595Z" fill="black"/>
<path d="M103.712 95.2652C107.341 96.1579 103.712 87.8685 103.479 87.3583C102.78 85.6048 102.114 83.8512 101.382 82.1296C99.8309 78.5096 97.6839 75.1512 95.0225 72.1822C95.0225 72.1822 95.0225 72.0228 95.0225 72.1822C100.117 76.295 102.247 82.8948 104.511 88.7612C104.911 89.7814 108.107 97.3695 103.646 95.4884C103.646 95.4884 103.646 95.2334 103.646 95.2652L103.712 95.2652Z" fill="black"/>
<path d="M102.447 83.3411C104.575 86.6991 106.137 90.3574 107.075 94.1812C107.075 94.1812 107.075 94.1812 106.909 94.1812C106.01 92.4276 105.477 90.5147 104.711 88.7293C103.946 86.9438 103.08 85.1903 102.247 83.4048C102.247 83.4048 102.247 83.2135 102.447 83.4048L102.447 83.3411Z" fill="black"/>
<path d="M103.879 86.5932C104.862 88.8358 105.621 91.1632 106.143 93.5436C106.143 93.5436 106.143 93.703 105.91 93.5436C104.972 91.2991 104.226 88.9853 103.679 86.6251C103.679 86.6251 103.846 86.4338 103.879 86.6251L103.879 86.5932Z" fill="black"/>
<path d="M104.611 88.3784C105.884 90.6167 106.363 93.19 105.976 95.7115L105.71 95.7115C105.71 94.5637 105.71 93.4159 105.51 92.2362C105.261 90.9534 104.894 89.6944 104.411 88.4741C104.411 88.4741 104.411 88.2828 104.611 88.4741L104.611 88.3784Z" fill="black"/>
<path d="M95.8882 72.5327C97.5197 80.312 97.9525 89.3986 103.346 95.807C103.346 95.807 103.346 96.0302 103.346 95.807C97.7527 90.1 96.8871 79.8657 95.8882 72.437L96.0547 72.437L95.8882 72.5327Z" fill="black"/>
<path d="M100.882 93.0972C101.615 93.7667 102.148 94.6913 103.113 95.1377C103.573 95.3676 104.1 95.446 104.611 95.3608C104.982 95.2231 105.339 95.0523 105.677 94.8507C105.677 94.8507 105.91 94.8507 105.877 95.042C105.51 95.9028 104.112 95.871 103.346 95.6478C102.765 95.413 102.239 95.0691 101.799 94.6366C101.358 94.204 101.013 93.6914 100.783 93.129L100.882 93.0972Z" fill="black"/>
<path d="M102.014 93.5117C102.314 94.1171 102.408 94.7976 102.281 95.4566C102.19 95.1769 102.134 94.8879 102.114 94.5957C102.114 94.245 102.114 93.8943 102.114 93.5436L102.281 93.5436L102.014 93.5117Z" fill="black"/>
<path d="M101.248 92.6509C101.248 92.9697 101.448 93.2885 101.515 93.6074C101.555 93.9357 101.555 94.2674 101.515 94.5957C101.515 94.5957 101.515 94.5957 101.515 94.8189C101.489 94.8329 101.461 94.8403 101.432 94.8403C101.402 94.8403 101.374 94.8329 101.348 94.8189C101.148 94.1849 101.014 93.5334 100.949 92.8741C100.949 92.8741 101.149 92.6828 101.182 92.8741L101.248 92.6509Z" fill="black"/>
<path d="M99.95 91.1841C100.651 92.5078 101.209 93.8966 101.615 95.3288L101.215 95.3288C101.166 94.6051 100.861 93.9191 100.35 93.384L100.549 93.1927C101.091 93.9071 101.717 94.5597 102.414 95.1375L102.081 95.4245C101.286 94.4523 100.637 93.3793 100.15 92.2362C100.15 92.2362 100.15 92.0768 100.15 92.2362C100.81 93.343 101.544 94.4079 102.347 95.4245C102.514 95.6158 102.181 95.8708 102.014 95.7114C101.273 95.1242 100.653 94.4108 100.183 93.6072C100.183 93.6072 100.183 93.3202 100.416 93.6072C100.882 94.2288 101.242 94.9176 101.482 95.6477C101.482 95.6923 101.469 95.736 101.443 95.7733C101.418 95.8106 101.381 95.8397 101.338 95.8569C101.295 95.8741 101.248 95.8785 101.202 95.8696C101.156 95.8607 101.115 95.8389 101.082 95.8071C100.439 94.4548 99.9376 93.0451 99.5838 91.5986L99.8168 91.5986L99.95 91.1841Z" fill="black"/>
<path d="M99.3839 88.8887C99.7185 90.0764 100.247 91.2062 100.949 92.2364C101.294 92.8006 101.759 93.2893 102.314 93.6711C103.446 94.4363 105.843 94.4681 105.643 92.4914C106.109 94.1174 104.278 95.0101 102.813 94.4681C101.766 93.9203 100.88 93.127 100.24 92.1624C99.599 91.1978 99.2245 90.0934 99.1509 88.9524L99.3839 88.8887Z" fill="black"/>
<path d="M95.4223 72.246C96.1202 73.1946 96.5763 74.2865 96.7541 75.4343C97.2152 77.1093 97.5491 78.8142 97.7529 80.5355C97.7529 80.5355 97.5865 80.6949 97.5532 80.5355C96.521 77.8573 96.3546 74.956 95.2558 72.2779C95.2558 72.2779 95.2558 72.1185 95.4223 72.2779L95.4223 72.246Z" fill="black"/>
<path d="M95.2222 73.1387C95.6477 74.163 95.9385 75.2339 96.0879 76.3269C96.4137 77.4383 96.5927 78.5844 96.6206 79.7384C96.6206 79.7384 96.4208 79.7384 96.3543 79.7384C95.9579 78.7003 95.7005 77.6183 95.5885 76.5182C95.2701 75.4179 95.1133 74.2804 95.1224 73.1387L95.2222 73.1387Z" fill="black"/>
<path d="M95.4218 73.1069C95.9109 74.4869 96.2021 75.9242 96.2874 77.3792C96.6348 78.8002 96.8025 80.256 96.7868 81.7152C96.7868 81.7152 96.5871 81.7152 96.5538 81.7152C96.1213 80.3243 95.8532 78.8912 95.7547 77.443C95.4524 76.0168 95.3295 74.5611 95.3885 73.1069L95.4218 73.1069Z" fill="black"/>
<path d="M95.5884 72.9156C95.5589 73.9148 95.7284 74.9103 96.0878 75.8488L96.5872 78.3676C97.0412 80.3117 97.3638 82.2819 97.5527 84.2659C97.5527 84.2659 97.3863 84.4572 97.353 84.2659C96.6544 81.7711 96.1206 79.2368 95.7548 76.6778C95.7548 75.8169 94.5562 73.2982 95.4552 72.7881L95.5884 72.9156Z" fill="black"/>
<path d="M97.3862 80.1209C97.7595 81.3243 97.983 82.5657 98.0521 83.8193C98.423 85.5591 98.9124 87.2738 99.5171 88.9524C99.5171 88.9524 99.5171 89.1118 99.5171 88.9524C98.8912 87.7867 98.4428 86.5413 98.1853 85.254C97.8191 83.5323 97.9189 81.7469 97.5194 80.0571L97.3862 80.1209Z" fill="black"/>
<path d="M97.8858 80.1528C98.557 85.3451 100.144 90.3906 102.58 95.0738C102.58 95.0738 102.58 95.2333 102.58 95.0738C99.2509 91.0248 98.3852 85.0946 97.9191 80.0571L97.8858 80.1528Z" fill="black"/>
<path d="M127.518 63.9881C124.821 65.0721 122.124 66.188 120.06 63.6055C120.06 63.6055 120.06 63.4461 120.06 63.6055C120.566 64.2173 121.253 64.6691 122.03 64.9022C122.808 65.1353 123.641 65.139 124.421 64.9127C125.367 64.4827 126.379 64.2027 127.418 64.0838L127.518 63.9881Z" fill="black"/>
<path d="M119.061 62.7767C116.431 59.3971 115.731 55.0292 113.368 51.4583C110.251 46.8833 106.068 43.0635 101.149 40.2994C101.149 40.2994 101.149 40.1081 101.149 40.2994C105.396 42.3972 109.069 45.4225 111.869 49.1309C113.403 51.1165 114.709 53.2543 115.765 55.5074C116.619 58.0816 117.734 60.5696 119.094 62.9361C119.094 62.9361 119.094 63.0955 119.094 62.9361L119.061 62.7767Z" fill="black"/>
<path d="M100.383 39.2791C98.3295 37.3416 96.8181 34.9405 95.9881 32.2968C93.6661 27.9413 90.1277 24.2881 85.7667 21.7437C85.7667 21.7437 85.7667 21.7437 85.7667 21.7437C88.9742 23.4743 91.756 25.8446 93.9239 28.6941C96.3544 31.8823 97.2533 36.8242 100.583 39.2472L100.383 39.2791Z" fill="black"/>
<path d="M85.3335 21.3293C79.4404 18.9381 76.1109 13.4862 72.0157 8.95883C72.0157 8.79942 72.0157 8.64 72.3154 8.76753C76.3107 13.3586 79.4737 18.4917 85.2669 21.2337L85.3335 21.3293Z" fill="black"/>
<path d="M71.8828 8.19345C71.1836 7.39639 70.551 6.53555 69.9184 5.7066C69.2858 4.87766 68.1871 2.86905 67.2549 3.06034C67.9208 2.55022 68.4868 3.53858 68.8197 3.95306C69.8851 5.3559 71.0171 6.72685 71.9827 8.19345L71.8828 8.19345Z" fill="black"/>
<path d="M66.8221 3.53857C68.8946 9.09668 70.607 14.772 71.9495 20.532C72.4639 26.4274 72.6639 32.344 72.5488 38.2588C71.5832 32.8388 72.7818 27.4506 72.0493 22.0305C70.7755 15.7642 69.0285 9.59463 66.8221 3.57046L66.8221 3.53857Z" fill="black"/>
<path d="M73.1481 39.5343C72.8485 49.0991 69.8187 58.1857 72.5155 67.7186C69.1861 58.5683 72.1826 48.8122 73.1814 39.5024L73.1481 39.5343Z" fill="black"/>
<path d="M72.8149 69.3125C71.916 70.4922 72.8149 75.3065 72.8149 76.7093C72.7736 78.3539 72.4935 79.9849 71.9826 81.5555C71.1501 84.0228 69.4267 86.1253 67.1216 87.4857C68.8142 86.163 70.1682 84.487 71.08 82.586C71.9918 80.685 72.4372 78.6093 72.3821 76.518C72.3821 74.6051 71.6163 70.7791 72.7817 69.0894L72.8149 69.3125Z" fill="black"/>
<path d="M66.2227 87.8364C60.8289 89.59 55.2022 90.387 49.9083 92.4275C43.9099 94.9342 38.2067 98.0443 32.8949 101.705C32.8949 101.705 32.7284 101.705 32.8949 101.705C42.5836 93.7347 54.3365 91.0566 66.1894 87.9002L66.2227 87.8364Z" fill="black"/>
<path d="M100.116 41.4473C102.567 43.0624 104.803 44.9574 106.775 47.0905C106.775 47.0905 106.775 47.3456 106.775 47.2499C104.777 45.1775 102.613 43.3283 100.416 41.4473L100.116 41.4473Z" fill="black"/>
<path d="M99.0842 41.8615C101.315 42.9268 103.177 44.5878 104.445 46.6439C104.445 46.6439 104.445 46.6439 104.445 46.6439C103.579 45.8149 102.913 44.8266 102.014 44.0295C101.115 43.2324 100.116 42.531 99.184 41.8296L99.0842 41.8615Z" fill="black"/>
<path d="M98.5519 42.4036C99.9602 43.1359 101.117 44.2433 101.881 45.5919C101.315 45.0499 100.849 44.4122 100.317 43.8702C99.7838 43.3282 99.1179 42.85 98.4853 42.3398L98.5519 42.4036Z" fill="black"/>
<path d="M101.082 40.2358C107.741 44.2849 113.201 48.4935 116.098 55.8902C114.538 52.2287 112.28 48.8772 109.439 46.0066C106.832 43.9233 104.085 42.0062 101.215 40.2677L101.082 40.2358Z" fill="black"/>
<path d="M199.634 34.4331C201.199 38.3228 197.403 41.798 194.64 44.253C190.844 47.4412 187.481 49.418 184.651 54.041C182.463 58.045 180.711 62.2545 179.424 66.6027C177.391 73.3549 174.624 79.8841 171.167 86.0831C169.889 88.7798 168.157 91.2571 166.04 93.4161C162.377 96.6043 159.114 97.9434 157.017 102.821C157.017 103.108 156.384 102.821 156.484 102.821C158.315 96.7 163.842 95.2653 167.538 90.451C172.233 83.6924 175.7 76.2221 177.793 68.3563C179.321 62.5652 181.686 57.0066 184.818 51.841C188.147 46.7717 201.465 42.0212 199.101 34.7519C199.101 34.6843 199.129 34.6194 199.179 34.5716C199.229 34.5237 199.297 34.4969 199.367 34.4969C199.438 34.4969 199.506 34.5237 199.556 34.5716C199.606 34.6194 199.634 34.6843 199.634 34.7519L199.634 34.4331Z" fill="black"/>
<path d="M199.368 34.2737C194.806 34.6882 191.477 38.3866 187.715 40.6503C185.09 42.1169 182.339 43.3649 179.491 44.3805C173.418 46.4732 167.169 48.0626 160.813 49.1311C153.652 50.038 146.61 51.6623 139.804 53.9772C135.904 55.6759 132.361 58.0421 129.349 60.9595C127.948 62.3296 126.272 63.4141 124.422 64.1478C124.373 64.1732 124.316 64.179 124.263 64.1641C124.21 64.1491 124.165 64.1146 124.139 64.0681C124.112 64.0216 124.106 63.9669 124.122 63.9161C124.137 63.8653 124.173 63.8225 124.222 63.7971C129.449 60.6088 132.879 55.8902 138.672 53.3715C144.891 51.03 151.388 49.4344 158.016 48.6209C165.832 47.5084 173.508 45.6281 180.923 43.0096C184.779 41.4673 188.452 39.5326 191.876 37.2388C193.929 35.4241 196.578 34.3528 199.368 34.21C199.368 34.21 199.368 34.21 199.368 34.21L199.368 34.2737Z" fill="black"/>
<path d="M159.547 98.836C151.956 104.862 165.54 113.151 168.47 118.157C171.066 123.446 173.215 128.926 174.896 134.545C177.101 141.091 180.481 147.219 184.884 152.654C187.881 156.034 191.543 159.03 192.009 163.749C192.009 164.036 191.543 164.195 191.476 163.749C189.612 156.767 182.653 152.144 179.024 145.959C175.624 139.425 172.86 132.605 170.767 125.586C169.402 120.922 166.878 116.644 163.409 113.119C161.132 111.434 159.105 109.461 157.383 107.253C156.89 106.56 156.545 105.781 156.368 104.961C156.19 104.14 156.183 103.294 156.347 102.471C156.51 101.648 156.842 100.864 157.323 100.163C157.803 99.4631 158.423 98.8603 159.147 98.3896C159.187 98.376 159.23 98.3748 159.27 98.386C159.311 98.3973 159.347 98.4205 159.372 98.4523C159.398 98.4841 159.413 98.5229 159.414 98.5632C159.416 98.6034 159.404 98.6431 159.38 98.6766L159.547 98.836Z" fill="black"/>
<path d="M191.909 162.123C191.909 163.112 191.676 164.1 191.543 165.088C191.536 165.126 191.521 165.162 191.497 165.193C191.474 165.225 191.443 165.25 191.408 165.269C191.373 165.287 191.334 165.298 191.294 165.3C191.254 165.301 191.214 165.295 191.177 165.28C187.793 163.438 184.773 161.042 182.254 158.202C177.414 154.157 171.344 151.71 164.941 151.219C156.118 150.199 146.096 150.805 139.104 144.843C138.838 144.588 139.104 144.11 139.471 144.301C149.459 150.199 160.213 148.637 170.967 151.538C174.502 152.465 177.807 154.058 180.689 156.225C182.396 157.624 184.019 159.114 185.55 160.689C187.215 162.346 190.844 166.3 191.41 162.06C191.41 161.741 191.943 161.836 191.909 162.06L191.909 162.123Z" fill="black"/>
<path d="M140.503 145.959C139.242 144.407 137.49 143.288 135.509 142.77C134.647 142.626 133.76 142.71 132.944 143.013C132.128 143.316 131.415 143.828 130.881 144.492C130.867 144.519 130.846 144.542 130.819 144.558C130.793 144.574 130.762 144.582 130.731 144.582C130.7 144.582 130.669 144.574 130.643 144.558C130.616 144.542 130.595 144.519 130.581 144.492C130.847 142.675 133.112 141.973 134.81 142.069C135.998 142.303 137.124 142.765 138.12 143.429C139.115 144.092 139.96 144.942 140.603 145.927L140.503 145.959Z" fill="black"/>
<path d="M131.413 143.695C128.084 148.637 128.383 154.854 125.254 159.955C122.74 163.775 119.402 167.036 115.465 169.52C109.751 173.085 104.857 177.728 101.082 183.166C97.9188 188.171 96.1542 193.719 93.3908 198.884C93.3908 199.171 92.7249 198.884 92.8248 198.693C95.285 188.665 100.94 179.618 109.006 172.804C114.466 168.595 120.592 165.471 124.388 159.573C127.717 154.567 127.285 148.159 131.213 143.631L131.413 143.631L131.413 143.695Z" fill="black"/>
<path d="M93.6577 198.214C93.49 198.725 93.1585 199.173 92.7103 199.493C92.2621 199.814 91.7199 199.991 91.1606 200C90.1618 200 88.6635 199.298 88.6635 198.15C88.6635 198.15 88.6635 197.927 88.9299 198.15C89.5625 198.724 89.8954 199.426 90.861 199.585C91.3877 199.665 91.9272 199.581 92.4005 199.346C92.8738 199.11 93.256 198.736 93.4912 198.278C93.4912 198.278 93.691 198.278 93.4912 198.278L93.6577 198.214Z" fill="black"/>
<path d="M89.0627 199.203C87.5977 193.815 89.0627 188.108 89.0627 182.624C89.0286 175.6 87.102 168.703 83.4692 162.601C80.6825 158.689 79.0492 154.129 78.7414 149.402C78.7414 142.484 80.6391 136.362 76.8103 129.954C76.7767 129.87 76.7726 129.777 76.7987 129.691C76.8248 129.604 76.8796 129.528 76.9548 129.474C77.0301 129.42 77.1217 129.391 77.2157 129.391C77.3098 129.391 77.4012 129.421 77.4762 129.475C78.8076 131.184 79.7676 133.131 80.2994 135.201C80.8313 137.271 80.9242 139.422 80.5726 141.527C79.8363 145.472 79.6905 149.498 80.1397 153.483C81.3784 157.279 83.1123 160.911 85.3004 164.291C91.4266 175.865 88.43 186.832 89.0294 199.171L89.0627 199.203Z" fill="black"/>
<path d="M77.2099 130.719C74.8127 127.69 68.9861 133.397 66.7221 134.513C64.482 135.538 62.1242 136.308 59.697 136.808C54.51 138.055 49.1532 138.528 43.8155 138.211C29.5654 137.35 17.1799 129.188 2.92986 129.412C2.80624 129.412 2.68768 129.365 2.60026 129.281C2.51285 129.197 2.46373 129.084 2.46373 128.965C2.46373 128.847 2.51285 128.733 2.60026 128.65C2.68768 128.566 2.80624 128.519 2.92986 128.519C9.41807 128.054 15.9278 129.093 21.9077 131.548C30.1284 134.859 38.9005 136.737 47.8108 137.095C55.8182 137.445 63.7279 135.297 70.3512 130.974C72.6818 129.252 75.3787 127.339 77.4762 130.368C77.4893 130.385 77.4989 130.404 77.5043 130.424C77.5097 130.444 77.5109 130.466 77.5079 130.486C77.5048 130.507 77.4974 130.527 77.4863 130.545C77.4751 130.563 77.4604 130.579 77.4429 130.591C77.4254 130.604 77.4055 130.613 77.3844 130.618C77.3632 130.623 77.3411 130.625 77.3195 130.622C77.2979 130.619 77.277 130.612 77.2582 130.601C77.2394 130.59 77.223 130.576 77.2099 130.559L77.2099 130.719Z" fill="black"/>
<path d="M2.1311 128.614C-0.732254 126.925 0.832604 122.907 2.1311 120.803C1.06567 123.577 0.0668227 125.873 2.1311 128.487L2.1311 128.614Z" fill="black"/>
<path d="M1.89749 121.696C1.09089 122.966 0.772915 124.466 0.99853 125.936C1.16767 126.656 1.59187 127.296 2.19892 127.75C2.80596 128.203 3.55834 128.441 4.32799 128.423C4.69423 128.423 4.66093 128.997 4.32799 129.029C3.5419 129.044 2.77087 128.821 2.12507 128.392C1.47927 127.962 0.991759 127.348 0.73218 126.638C0.456614 125.774 0.431887 124.855 0.660649 123.978C0.88941 123.102 1.36302 122.302 2.03067 121.664L1.89749 121.696Z" fill="black"/>
<path d="M0.665543 126.669C1.46744 127.573 2.453 128.311 3.56218 128.837C3.60545 128.854 3.64253 128.883 3.66866 128.92C3.69478 128.956 3.70874 129 3.70874 129.045C3.70874 129.089 3.69478 129.133 3.66866 129.17C3.64253 129.207 3.60545 129.235 3.56218 129.252C2.23039 129.603 0.23271 128.614 0.598952 127.148L0.798712 127.148C0.83742 127.43 0.93749 127.702 1.09247 127.945C1.24746 128.188 1.45392 128.398 1.69856 128.56C1.94321 128.722 2.22062 128.833 2.51292 128.887C2.80522 128.94 3.10594 128.934 3.39571 128.869L3.39571 129.284C2.14774 128.843 1.13107 127.95 0.56565 126.797L0.665543 126.669Z" fill="black"/>
<path d="M2.63027 128.965C-2.19745 127.244 0.566004 121.218 3.46263 119.146C3.46263 119.146 3.62911 119.146 3.46263 119.146C2.24465 120.379 1.27405 121.816 0.599297 123.386C0.234164 124.353 0.234042 125.411 0.598954 126.378C0.963866 127.345 1.67077 128.159 2.59697 128.678C2.59697 128.678 2.59697 128.902 2.59697 128.838L2.63027 128.965Z" fill="black"/>
<path d="M3.12969 119.719C2.53038 122.621 0.932234 126.638 4.52808 128.264L4.52808 128.519C0.033274 128.519 2.43049 121.76 3.0631 119.687C3.0631 119.687 3.22957 119.687 3.0631 119.687L3.12969 119.719Z" fill="black"/>
<path d="M1.63161 121.632C1.7138 122.629 1.61239 123.633 1.33198 124.597C1.21538 125.155 1.21538 125.729 1.33198 126.287C1.4712 126.761 1.66085 127.22 1.89797 127.658C1.90393 127.688 1.90203 127.72 1.89243 127.749C1.88283 127.779 1.86581 127.806 1.84286 127.828C1.81991 127.85 1.7917 127.866 1.7607 127.876C1.72969 127.885 1.69682 127.887 1.66491 127.881C-0.532479 126.956 1.66491 123.099 1.66491 121.504L1.63161 121.632Z" fill="black"/>
<path d="M117.53 101.387C124.189 106.201 135.276 86.0193 137.507 82.2572C137.74 81.8746 138.406 82.2572 138.172 82.5441C135.038 88.5352 130.962 94.0299 126.087 98.8362C123.723 101.004 120.493 104.129 117.363 101.546C117.363 101.546 117.363 101.291 117.53 101.355L117.53 101.387Z" fill="black"/>
<path d="M137.606 82.3528C134.044 84.3933 130.115 85.828 126.686 88.0598C122.69 90.6742 116.431 96.3174 118.695 101.514C118.71 101.541 118.72 101.571 118.723 101.602C118.726 101.633 118.723 101.664 118.714 101.693C118.705 101.723 118.689 101.751 118.669 101.775C118.649 101.799 118.623 101.818 118.595 101.833C118.567 101.848 118.535 101.857 118.503 101.86C118.471 101.863 118.439 101.86 118.408 101.851C118.377 101.842 118.348 101.828 118.323 101.808C118.298 101.789 118.277 101.765 118.262 101.737C115.565 98.5492 118.961 93.9581 121.358 91.3756C125.946 87.1838 131.467 84.0442 137.506 82.1934C137.506 82.1934 137.706 82.1934 137.506 82.1934L137.606 82.3528Z" fill="black"/>
<path d="M135.742 83.5323C135.742 82.8309 135.742 83.1178 136.108 82.544C136.474 81.9701 136.441 82.544 136.374 82.7034C134.333 87.738 131.201 92.3017 127.185 96.0941C124.954 98.3259 121.725 102.471 118.195 101.355C117.796 101.355 117.962 100.653 118.195 100.621C122.624 100.207 126.785 94.755 129.382 91.6305C130.614 90.1639 131.78 88.6654 132.712 87.167C132.379 87.6133 135.575 83.4367 135.575 83.5323C135.575 83.628 135.575 83.5323 135.575 83.5323L135.742 83.5323Z" fill="black"/>
<path d="M118.728 101.578C120.298 100.92 121.775 100.074 123.123 99.0593C124.322 98.1028 125.121 96.6043 126.452 95.871C126.506 95.8298 126.572 95.8056 126.641 95.8018C126.71 95.798 126.778 95.8147 126.837 95.8497C126.895 95.8847 126.941 95.9362 126.967 95.9972C126.994 96.0581 127 96.1254 126.985 96.1898C126.418 97.6857 125.369 98.9699 123.989 99.8563C122.561 101.041 120.879 101.912 119.061 102.407C118.959 102.441 118.848 102.435 118.751 102.39C118.654 102.345 118.58 102.265 118.545 102.168C118.51 102.071 118.516 101.964 118.563 101.871C118.61 101.779 118.693 101.707 118.795 101.674L118.728 101.578Z" fill="black"/>
<path d="M118.861 101.45C119.527 101.227 120.193 101.45 120.892 101.068C121.707 100.649 122.448 100.111 123.09 99.4737C124.041 98.4058 125.165 97.4909 126.419 96.7637C126.586 96.7637 126.752 96.7637 126.686 97.0506C126.179 97.9947 125.463 98.8216 124.588 99.4737C123.956 100.116 123.265 100.702 122.524 101.227C121.691 101.769 119.594 102.726 118.928 101.514L118.861 101.45Z" fill="black"/>
<path d="M119.661 102.279C116.032 102.279 115.599 96.5722 118.329 95.1693C118.364 95.1468 118.405 95.1355 118.447 95.1368C118.489 95.1382 118.53 95.1523 118.563 95.177C118.596 95.2018 118.621 95.2359 118.632 95.2746C118.644 95.3133 118.643 95.3546 118.629 95.3925C118.129 96.6997 117.064 97.5924 117.23 99.1228C117.311 99.7634 117.593 100.365 118.039 100.849C118.485 101.333 119.074 101.676 119.727 101.833C119.96 101.833 119.894 102.247 119.727 102.279L119.661 102.279Z" fill="black"/>
<path d="M134.51 83.5962C134.51 84.4889 134.51 85.3816 134.276 86.2743L134.077 86.2743C134.077 85.3816 134.077 84.4889 134.276 83.5962L134.51 83.5962Z" fill="black"/>
<path d="M133.411 83.9468C133.423 85.1103 133.334 86.2727 133.145 87.422L132.912 87.422C132.922 86.2568 133.033 85.0943 133.245 83.9468L133.411 83.9468Z" fill="black"/>
<path d="M132.279 84.2974C132.446 86.0047 132.446 87.7232 132.279 89.4305L132.046 89.4305C131.88 87.7232 131.88 86.0047 132.046 84.2974C132.046 84.2974 132.279 84.138 132.279 84.2974Z" fill="black"/>
<path d="M131.014 85.1582C131.069 87.1373 130.89 89.116 130.481 91.0565C130.481 91.0565 130.314 91.0565 130.281 91.0565C130.243 89.078 130.422 87.1011 130.814 85.1582L131.014 85.1582Z" fill="black"/>
<path d="M129.416 86.083C129.511 88.2103 129.444 90.3415 129.216 92.4595C129.216 92.619 128.95 92.619 128.95 92.4595C128.888 90.3299 128.988 88.1988 129.249 86.083C129.249 86.083 129.416 86.083 129.416 86.083Z" fill="black"/>
<path d="M127.019 87.167C126.947 90.2075 126.691 93.2414 126.253 96.2535L125.986 96.2535C126.042 93.2123 126.298 90.1774 126.752 87.167C126.752 87.167 126.985 87.167 126.985 87.167L127.019 87.167Z" fill="black"/>
<path d="M120.094 94.4044C120.066 96.8114 119.821 99.2115 119.361 101.578C119.361 101.578 119.361 101.578 119.161 101.578C119.206 99.1614 119.451 96.752 119.894 94.3726C119.894 94.3726 120.094 94.3726 120.094 94.3726L120.094 94.4044Z" fill="black"/>
<path d="M103.879 86.0828C103.879 86.0828 103.879 90.0044 103.879 90.4507C103.962 91.6397 103.962 92.8326 103.879 94.0216C103.587 92.175 103.442 90.3098 103.446 88.4421C103.446 87.8045 103.013 86.4016 103.712 86.019L103.879 86.0828Z" fill="black"/>
<path d="M102.547 83.7554C102.697 87.1144 102.63 90.4791 102.347 93.8303C102.347 93.8303 102.347 93.8303 102.181 93.8303C102.042 90.4812 102.12 87.1271 102.414 83.7873L102.547 83.7554Z" fill="black"/>
<path d="M101.748 81.46C102.004 85.4069 101.859 89.3683 101.315 93.2884C101.315 89.3669 101.482 85.3496 101.781 81.46L101.748 81.46Z" fill="black"/>
<path d="M99.4172 77.6023C99.8501 81.585 99.917 85.5963 99.617 89.5902L99.4505 89.5902C99.1508 85.6686 99.2174 81.6195 99.2174 77.6661C99.2174 77.6661 99.4172 77.5067 99.4172 77.6661L99.4172 77.6023Z" fill="black"/>
<path d="M97.8524 75.1475C98.6498 78.7396 98.9631 82.4148 98.7846 86.0832L98.6182 86.0832C98.3185 82.4805 98.0189 78.8777 97.6859 75.275L97.8524 75.275L97.8524 75.1475Z" fill="black"/>
<path d="M198.535 35.2622C199.634 40.4591 193.341 43.6155 189.778 46.2936C193.108 42.7865 198.868 41.0011 198.568 35.3579L198.535 35.2622Z" fill="black"/>
<path d="M188.746 47.0585C179.657 55.1567 177.759 65.9968 173.364 76.5181C173.364 76.5181 173.131 76.5181 173.165 76.5181C177.093 66.507 178.825 53.6264 188.613 46.9629L188.746 47.0585Z" fill="black"/>
<path d="M157.816 94.1494C155.551 96.3303 153.931 99.0478 153.122 102.024C153.646 98.9554 155.343 96.1826 157.883 94.2451L157.816 94.1494Z" fill="black"/>
<path d="M197.603 35.7085C194.513 36.8047 191.691 38.4977 189.313 40.6822C187.015 42.2764 184.585 43.8705 182.154 45.1458C178.188 46.9343 174.022 48.2822 169.736 49.163L169.736 49.0036C172.233 48.0152 174.896 47.8239 177.46 46.995C180.55 45.8191 183.479 44.2882 186.183 42.4358C189.845 40.1402 193.341 36.4418 197.57 35.4854C197.57 35.4854 197.57 35.6766 197.57 35.7085L197.603 35.7085Z" fill="black"/>
<path d="M168.437 48.812C157.55 50.8844 143.133 50.98 134.909 58.9826C142.301 50.6612 158.216 50.4699 168.47 48.812L168.437 48.812Z" fill="black"/>
<path d="M152.555 52.3193C149.849 52.7216 147.178 53.3184 144.565 54.1048C142.201 54.9975 140.103 56.4322 137.906 57.4524C142.348 54.6376 147.427 52.8779 152.722 52.3193C152.722 52.3193 152.722 52.3193 152.722 52.3193L152.555 52.3193Z" fill="black"/>
<path d="M152.023 53.1798C146.795 54.3914 140.636 55.6986 136.64 59.3332C136.64 59.3332 136.441 59.3332 136.64 59.3332C138.173 57.583 140.23 56.3254 142.534 55.7304C145.665 54.6953 148.855 53.833 152.089 53.1479C152.089 53.1479 152.089 53.1479 152.089 53.1479L152.023 53.1798Z" fill="black"/>
<path d="M133.777 59.8754C132.257 61.1348 130.668 62.3162 129.016 63.4144C128.85 63.4144 128.65 63.4144 128.816 63.1593C130.381 61.9478 131.979 60.7362 133.644 59.6841C133.644 59.6841 133.911 59.6841 133.644 59.8754L133.777 59.8754Z" fill="black"/>
<path d="M159.381 98.8358C158.615 100.026 158.163 101.376 158.065 102.77C157.966 104.164 158.224 105.561 158.815 106.838L158.648 106.838C156.018 105.18 157.782 100.462 159.281 98.6445L159.381 98.8358Z" fill="black"/>
<path d="M158.215 100.111C158.215 100.94 157.816 101.769 157.649 102.63C157.609 103.384 157.486 104.132 157.283 104.862C157.283 104.862 157.05 104.862 157.017 104.862C156.874 103.216 157.233 101.566 158.049 100.111L158.215 100.111Z" fill="black"/>
<path d="M191.909 163.367C192.092 164.014 192.092 164.696 191.909 165.343C191.881 165.364 191.845 165.375 191.809 165.375C191.773 165.375 191.738 165.364 191.71 165.343C191.167 165.344 190.636 165.189 190.185 164.9C189.735 164.61 189.384 164.198 189.179 163.717C189.477 164.095 189.852 164.412 190.281 164.648C190.71 164.883 191.185 165.033 191.676 165.088L191.477 165.088C191.676 164.482 191.676 163.813 191.843 163.175L191.909 163.367Z" fill="black"/>
<path d="M191.676 162.825C193.274 164.482 191.676 166.013 189.745 165.343C187.814 164.674 184.285 160.72 182.287 158.967C178.351 155.858 173.995 153.274 169.336 151.283C169.103 151.283 169.336 150.9 169.336 150.964C173.199 152.297 176.809 154.225 180.023 156.671C181.854 157.978 183.619 159.413 185.317 160.88C186.183 161.602 187.015 162.368 187.814 163.175C188.846 164.833 190.111 164.769 191.643 162.92L191.676 162.825Z" fill="black"/>
<path d="M155.386 106.201C158.129 110.291 161.285 114.114 164.808 117.615C167.59 121.533 169.734 125.833 171.167 130.368C168.337 124.82 166.539 119.592 161.945 115.128C159.138 112.62 156.924 109.565 155.452 106.169L155.386 106.201Z" fill="black"/>
<path d="M163.376 118.189C165.693 120.59 167.352 123.504 168.204 126.67C166.909 123.699 165.29 120.867 163.376 118.221L163.376 118.189Z" fill="black"/>
<path d="M161.678 118.252C163.486 120.42 164.893 122.868 165.84 125.49C165.84 125.49 165.84 125.49 165.84 125.49C165.141 124.31 164.575 123.035 163.909 121.823C163.243 120.612 162.411 119.464 161.678 118.284L161.678 118.252Z" fill="black"/>
<path d="M160.613 118.794C161.814 120.353 162.747 122.086 163.376 123.928C163.376 123.928 163.376 123.928 163.376 123.928C162.377 122.238 161.512 120.484 160.48 118.826L160.613 118.794Z" fill="black"/>
<path d="M152.988 103.714C152.988 107.54 156.517 111.239 158.515 114.395C158.515 114.395 158.515 114.618 158.315 114.395C156.917 112.323 155.519 110.218 154.253 108.018C153.371 106.674 152.92 105.111 152.955 103.523L152.988 103.714Z" fill="black"/>
<path d="M129.149 140.028C130.993 138.875 133.2 138.375 135.388 138.614C137.576 138.852 139.609 139.815 141.135 141.336C141.135 141.336 141.135 141.495 141.135 141.336C137.34 139.327 133.411 137.286 129.349 140.156C129.349 140.156 129.083 140.156 129.349 139.933L129.149 140.028Z" fill="black"/>
<path d="M141.601 142.547C146.476 145.755 152.177 147.618 158.082 147.936C161.578 148.095 164.908 147.17 168.071 148.509C163.01 146.915 157.117 148.509 151.823 147.266C148.072 146.362 144.535 144.782 141.402 142.611L141.601 142.547Z" fill="black"/>
<path d="M171.167 149.848C171.618 149.939 172.033 150.149 172.365 150.454C172.021 150.148 171.594 149.938 171.134 149.848C171.134 149.848 171.134 149.848 171.134 149.848L171.167 149.848Z" fill="black"/>
<path d="M175.595 151.538C178.056 152.693 180.304 154.222 182.254 156.065C184.685 158.265 186.582 161.199 189.812 162.442L190.012 162.601C187.777 161.782 185.851 160.338 184.485 158.457C181.952 155.78 178.942 153.556 175.595 151.889C175.595 151.889 175.595 151.57 175.595 151.634L175.595 151.538Z" fill="black"/>
<path d="M171.6 132.664C173.631 137.892 175.262 144.046 179.157 148.318C177.375 146.724 176.036 144.73 175.262 142.515C173.997 139.242 172.765 135.958 171.566 132.664L171.6 132.664Z" fill="black"/>
<path d="M170.035 132.6C171.517 137.576 173.761 142.314 176.694 146.66C176.694 146.66 176.694 146.851 176.494 146.66C173.499 142.382 171.313 137.634 170.035 132.631L170.035 132.6Z" fill="black"/>
<path d="M168.304 131.58C169.57 135.991 171.311 140.265 173.498 144.333C173.498 144.333 173.498 144.333 173.498 144.333C171.003 140.404 169.245 136.088 168.304 131.58C168.304 131.58 168.304 131.58 168.304 131.58Z" fill="black"/>
<path d="M167.105 132.09C167.994 134.94 169.107 137.722 170.435 140.411C170.435 140.411 170.435 140.411 170.435 140.411C168.932 137.816 167.875 135.006 167.305 132.09L167.105 132.09Z" fill="black"/>
<path d="M120.526 83.5645C119.372 86.2372 118.06 88.8451 116.598 91.3757C117.77 88.7158 119.093 86.1188 120.56 83.5963L120.526 83.5645Z" fill="black"/>
<path d="M119.394 82.6714C118.303 85.6895 116.898 88.5949 115.199 91.3435C116.697 88.474 118.196 85.6684 119.461 82.6714L119.394 82.6714Z" fill="black"/>
<path d="M117.929 82.8945C116.997 85.0944 116.164 87.3581 115.066 89.4624C115.898 87.2306 116.997 85.0944 117.996 83.0858L117.929 82.8945Z" fill="black"/>
<path d="M115.199 83.915C114.866 85.6048 114.533 87.3265 114.067 88.9525C114.367 87.2627 114.833 85.5729 115.299 83.915L115.199 83.915Z" fill="black"/>
<path d="M110.105 80.5036C110.105 83.4368 110.505 86.4337 110.405 89.367C110.105 86.4337 110.172 83.4049 110.105 80.4717L110.105 80.5036Z" fill="black"/>
<path d="M111.77 80.6309C112.036 83.8191 112.069 87.0074 112.036 90.1956C112.036 87.0074 112.036 83.8191 111.87 80.6309L111.77 80.6309Z" fill="black"/>
<path d="M135.542 60.5767C132.413 63.4142 127.618 67.3677 122.957 66.2518C128.317 66.7619 131.414 63.0635 135.542 60.6723L135.542 60.5767Z" fill="black"/>
<path d="M122.191 66.1883C120.31 65.8951 118.567 65.061 117.194 63.7968C115.82 62.5326 114.88 60.8981 114.5 59.1104C114.5 59.1104 114.5 59.1104 114.5 59.1104C115.021 60.808 116 62.3442 117.339 63.5643C118.677 64.7845 120.328 65.6455 122.124 66.0608L122.191 66.1883Z" fill="black"/>
<path d="M180.822 53.0527C178.592 58.0264 176.427 63.032 174.163 68.0057C175.829 62.8114 178.061 57.7995 180.822 53.0527Z" fill="black"/>
<path d="M178.958 55.0933C177.022 58.0757 175.51 61.2924 174.463 64.6581C175.318 61.2212 176.855 57.974 178.991 55.0933C178.991 55.0933 178.991 55.0933 178.991 55.0933L178.958 55.0933Z" fill="black"/>
<path d="M174.163 70.3649C172.232 74.4459 171.866 79.037 169.735 83.118C168.005 86.3363 165.603 89.1796 162.677 91.4712C166.237 88.3497 168.985 84.4736 170.701 80.1529C171.541 76.8012 172.654 73.5178 174.03 70.333L174.163 70.3649Z" fill="black"/>
<path d="M166.706 81.8428C165.137 85.2644 162.873 88.3531 160.047 90.9293C162.559 88.1301 164.789 85.109 166.706 81.9065C166.706 81.9065 166.706 81.9065 166.706 81.9065L166.706 81.8428Z" fill="black"/>
<path d="M164.708 83.3408C163.867 85.9842 162.058 88.2484 159.614 89.7173C161.767 88.0445 163.516 85.9454 164.741 83.564C164.741 83.564 164.741 83.564 164.741 83.564L164.708 83.3408Z" fill="black"/>
<path d="M163.143 83.6279C162.287 85.477 161.014 87.1212 159.414 88.4422C160.613 86.8162 161.978 85.2539 163.143 83.6598L163.143 83.6279Z" fill="black"/>
<path d="M141.135 59.9712C139.208 60.4837 137.467 61.4992 136.108 62.9044C135.177 64.0535 134.052 65.045 132.778 65.8376C134.31 64.7217 135.409 63.287 136.807 62.1073C138.048 61.0883 139.518 60.3572 141.102 59.9712L141.135 59.9712Z" fill="black"/>
<path d="M140.303 61.6289C137.585 63.0099 135.122 64.8086 133.011 66.9533C133.011 66.9533 132.812 66.9533 133.011 66.9533C134.873 64.5197 137.445 62.6673 140.403 61.6289L140.303 61.6289Z" fill="black"/>
<path d="M104.178 47.25C106.458 49.4738 108.237 52.1214 109.406 55.0294C111.532 58.7766 114.237 62.1948 117.43 65.1681C117.43 65.1681 117.43 65.1681 117.43 65.1681C114.572 62.8535 112.102 60.1331 110.105 57.1017C108.539 53.6298 106.574 50.3361 104.245 47.2819L104.178 47.25Z" fill="black"/>
<path d="M127.185 142.483C124.188 148.19 124.421 154.503 120.06 159.636C115.698 164.769 109.705 167.734 106.242 173.633C106.242 173.633 106.076 173.633 106.242 173.633C108.673 168.436 113.767 165.598 117.862 161.709C123.789 156.097 123.389 148.956 127.218 142.579L127.185 142.483Z" fill="black"/>
<path d="M104.312 174.334C97.1532 180.997 95.9213 190.467 91.7928 198.788C91.7928 198.788 91.4599 198.788 91.5597 198.788C95.5218 190.467 96.7537 180.647 104.278 174.366L104.312 174.334Z" fill="black"/>
<path d="M76.0782 125.937C80.0735 126.861 82.1711 131.357 82.7371 134.864C82.1376 133.062 81.4032 131.304 80.5396 129.603C79.5134 127.986 77.9559 126.742 76.1115 126.064L76.0782 125.937Z" fill="black"/>
<path d="M82.87 135.916C83.0697 142.547 81.4383 151.187 84.0353 157.404C86.0329 162.187 90.0949 165.598 89.9284 171.018C89.9284 164.642 84.4015 160.848 83.2695 155.077C82.4594 148.728 82.3701 142.314 83.0031 135.947L82.87 135.916Z" fill="black"/>
<path d="M90.4277 172.995C92.0931 180.746 91.9908 188.751 90.1281 196.461C91.2875 188.695 91.3994 180.82 90.461 173.027L90.4277 172.995Z" fill="black"/>
<path d="M90.1282 184.919C90.1282 188.108 89.9284 191.009 89.6288 194.038C89.6288 194.229 89.3291 194.038 89.3291 194.038C89.3291 190.85 89.6621 187.916 90.0283 184.919L90.1282 184.919Z" fill="black"/>
<path d="M74.5464 125.618C69.4607 126.441 64.5817 128.171 60.1631 130.719C55.6783 132.329 51.0392 133.515 46.3126 134.258C52.2573 133.037 58.0259 131.131 63.4926 128.583C66.9065 126.716 70.7225 125.625 74.6462 125.395L74.5464 125.618Z" fill="black"/>
<path d="M69.9182 128.295C65.4567 130.463 59.4637 134.194 54.2032 133.11C59.7634 133.588 64.8907 130.272 69.8516 128.359L69.9182 128.295Z" fill="black"/>
<path d="M45.3135 133.907C34.6259 133.907 23.5722 129.667 13.6837 126.096C13.6837 126.096 13.6837 125.904 13.6837 126.096C24.1715 128.933 34.2264 133.62 45.2802 133.875L45.2802 134.066L45.3135 133.907Z" fill="black"/>
<path d="M12.7519 126.064C10.7542 125.171 7.52463 126.638 6.09297 124.629C4.99426 123.258 6.52581 121.855 7.85758 121.441L6.95863 121.983C6.67041 122.157 6.40252 122.36 6.15956 122.589C6.15956 123.099 5.92651 123.641 5.82662 124.151C5.72674 124.661 7.49134 125.426 8.35699 125.522C9.95513 125.522 11.2869 125.203 12.7852 125.936L12.7519 126.064Z" fill="black"/>
<path d="M32.2292 103.172C27.6679 105.882 24.9377 110.41 20.3764 113.088C15.8151 115.766 11.7531 116.914 8.39039 120.58L8.22392 120.58C10.7543 116.882 15.2158 115.511 19.0779 113.47C24.1054 110.76 27.1352 105.978 32.0961 103.108C32.0961 103.108 32.3624 103.108 32.0961 103.3L32.2292 103.172Z" fill="black"/>
<path d="M66.0562 89.0801C57.6303 91.6258 49.4349 94.8247 41.5515 98.6449C49.289 94.4792 57.5447 91.2656 66.1228 89.0801C66.1228 89.0801 66.1228 89.0801 66.1228 89.0801L66.0562 89.0801Z" fill="black"/>
<path d="M53.138 94.7549C50.0161 95.883 46.9597 97.1708 43.982 98.6127C46.7748 96.7885 49.9047 95.4901 53.2046 94.7868L53.138 94.7549Z" fill="black"/>
<path d="M52.0722 91.3115C45.7261 93.3624 39.8248 96.5067 34.6592 100.589C34.6592 100.589 34.4594 100.589 34.6592 100.589C39.4921 96.0229 45.5554 92.8328 52.1721 91.3753L52.0722 91.3115Z" fill="black"/>
<path d="M46.8451 94.1174C47.3445 93.8304 47.8772 93.5435 48.3434 93.2247C48.8095 92.9058 48.3434 93.2247 48.077 93.2247C47.0782 93.6073 46.1126 94.0536 45.1138 94.5C43.1827 95.3608 41.3182 96.4129 39.3871 97.3375C42.4766 95.3764 45.8391 93.8416 49.3755 92.7783C49.3755 92.7783 49.3755 92.7783 49.3755 92.7783L46.9783 94.1493L46.8451 94.1174Z" fill="black"/>
<path d="M52.4721 90.4507C48.9096 91.9811 45.2805 93.4795 41.6181 94.723C45.1473 93.1607 48.843 91.7579 52.5054 90.4826L52.4721 90.4507Z" fill="black"/>
<path d="M176.294 68.3882C175.893 70.7036 175.165 72.956 174.13 75.0835C174.679 72.818 175.357 70.5828 176.161 68.3882C176.161 68.3882 176.461 68.3882 176.428 68.3882L176.294 68.3882Z" fill="black"/>
<path d="M176.328 67.8462C175.689 70.53 174.775 73.1465 173.597 75.6574C173.597 75.6574 173.364 75.6574 173.398 75.6574C174.03 72.976 174.933 70.3599 176.095 67.8462L176.328 67.8462Z" fill="black"/>
<path d="M176.095 68.3564C175.74 71.5034 174.816 74.5673 173.365 77.4111C173.365 77.4111 173.098 77.4111 173.132 77.4111C173.864 74.2229 175.096 71.4172 175.962 68.3883L176.095 68.3564Z" fill="black"/>
<path d="M125.42 88.1235C123.489 88.793 122.091 90.9929 120.592 92.4595C118.942 93.959 117.785 95.887 117.263 98.0071L117.096 98.0071C117.291 95.8516 118.368 93.8573 120.093 92.4595C121.558 90.8973 123.223 88.538 125.453 88.0278L125.42 88.1235Z" fill="black"/>
<path d="M103.679 108.082C102.314 112.003 97.9191 111.27 94.29 110.888C87.6934 109.868 81.2813 107.957 75.2455 105.212C75.1647 105.17 75.1036 105.1 75.0744 105.016C75.0451 104.933 75.0498 104.841 75.0877 104.761C75.1255 104.681 75.1936 104.617 75.2784 104.582C75.3632 104.548 75.4584 104.545 75.5452 104.575C80.0066 106.392 100.316 115.67 103.479 108.114C103.479 108.114 103.746 108.114 103.679 108.114L103.679 108.082Z" fill="black"/>
<path d="M75.3789 104.352C81.5846 102.188 88.2537 101.53 94.7896 102.439C98.119 103.172 103.113 104.702 103.08 108.815C103.08 109.07 102.68 109.23 102.58 108.815C101.049 103.204 92.0261 102.439 87.265 102.789C83.2697 103.045 79.4075 104.129 75.4455 104.575C75.4455 104.575 75.279 104.575 75.4455 104.384L75.3789 104.352Z" fill="black"/>
<path d="M77.6093 104.479L76.6104 104.097C76.6104 104.097 76.6104 103.778 76.6104 103.841C80.5725 105.117 84.4347 106.52 88.4966 107.412C92.5585 108.305 98.8179 109.867 102.181 107.859C102.26 107.791 102.364 107.756 102.471 107.762C102.577 107.768 102.676 107.814 102.747 107.891C102.817 107.967 102.853 108.066 102.847 108.168C102.841 108.27 102.793 108.365 102.713 108.433C100.749 111.143 96.0544 109.931 93.0246 109.517C87.5219 108.918 82.2245 107.165 77.5094 104.383L77.6093 104.479Z" fill="black"/>
<path d="M102.88 109.581C101.254 110.264 99.4893 110.591 97.7148 110.535C95.9402 110.48 94.2011 110.045 92.6252 109.262C92.5832 109.216 92.5544 109.16 92.5419 109.1C92.5293 109.04 92.5333 108.978 92.5535 108.92C92.5737 108.862 92.6093 108.81 92.657 108.769C92.7046 108.729 92.7625 108.701 92.825 108.688C94.3898 108.688 95.888 109.326 97.4529 109.389C99.215 109.439 100.975 109.245 102.68 108.816C103.146 108.816 103.279 109.421 102.88 109.581Z" fill="black"/>
<path d="M102.48 108.847C102.88 112.035 94.7228 110.409 93.4909 109.836C93.4493 109.813 93.4146 109.781 93.3904 109.742C93.3663 109.703 93.3535 109.658 93.3535 109.612C93.3535 109.567 93.3663 109.522 93.3904 109.483C93.4146 109.444 93.4493 109.411 93.4909 109.389C95.1857 109.389 96.878 109.516 98.5517 109.772C99.2574 109.881 99.9769 109.881 100.683 109.772C101.315 109.58 101.748 109.166 102.347 108.943L102.48 108.847Z" fill="black"/>
<path d="M101.948 109.644C102.396 109.087 102.639 108.403 102.639 107.699C102.639 106.996 102.396 106.312 101.948 105.754C101.082 104.639 99.7169 104.607 98.6182 103.842C98.5907 103.824 98.5682 103.8 98.5526 103.773C98.537 103.745 98.5289 103.714 98.5289 103.682C98.5289 103.651 98.537 103.619 98.5526 103.592C98.5682 103.564 98.5907 103.54 98.6182 103.523C100.183 103.14 102.114 104.67 102.78 105.914C103.175 106.553 103.325 107.304 103.203 108.037C103.081 108.771 102.696 109.441 102.114 109.931C101.914 109.931 101.615 109.931 101.748 109.644L101.948 109.644Z" fill="black"/>
<path d="M78.8081 103.586C79.4644 104.226 80.0866 104.896 80.6726 105.595C80.0067 104.957 79.4074 104.256 78.7748 103.586C78.7748 103.586 78.7748 103.363 78.9413 103.586L78.8081 103.586Z" fill="black"/>
<path d="M79.8736 103.268L81.0722 104.479C81.5197 104.925 81.942 105.393 82.3374 105.882C82.3374 105.882 82.3374 106.073 82.3374 105.882C81.9128 105.502 81.5126 105.097 81.1388 104.67C80.706 104.224 80.3064 103.746 79.9069 103.268C79.5074 102.789 79.9069 103.076 79.9069 103.268L79.8736 103.268Z" fill="black"/>
<path d="M81.072 102.853L82.8699 104.957C83.4279 105.574 83.9292 106.235 84.3682 106.934C84.3682 106.934 84.3682 107.125 84.2017 106.934C83.6031 106.353 83.0573 105.723 82.5703 105.053L80.8722 102.853C80.8722 102.853 80.8722 102.598 81.072 102.853Z" fill="black"/>
<path d="M82.5701 102.821C83.3692 103.555 84.1017 104.32 84.8341 105.085C85.5284 105.733 86.1634 106.437 86.7319 107.189C86.7319 107.189 86.7319 107.381 86.7319 107.189C85.9888 106.584 85.3087 105.911 84.701 105.181C83.9685 104.384 83.236 103.618 82.5701 102.821C82.5701 102.598 82.5701 102.821 82.5701 102.821Z" fill="black"/>
<path d="M84.3352 102.566C85.9314 104.094 87.3904 105.747 88.6968 107.508C88.6968 107.508 88.6968 107.795 88.497 107.7C86.9302 106.139 85.5045 104.454 84.2353 102.662L84.3352 102.566Z" fill="black"/>
<path d="M85.334 102.279C86.4327 103.395 87.4649 104.543 88.6635 105.659C89.6883 106.644 90.6239 107.71 91.4602 108.847C90.3576 107.982 89.3633 106.998 88.497 105.914C87.4649 104.798 86.4327 103.65 85.4672 102.471C85.4672 102.471 85.4672 102.247 85.4672 102.311L85.334 102.279Z" fill="black"/>
<path d="M87.065 102.024C89.3516 104.149 91.4872 106.418 93.4575 108.815L93.2245 109.007C90.9267 106.883 88.7799 104.614 86.7986 102.216L87.065 102.024Z" fill="black"/>
<path d="M88.7967 101.45C91.6683 103.333 94.1142 105.752 95.9883 108.56L95.8218 108.56C94.6232 107.412 93.5911 106.073 92.4924 104.894C91.3936 103.714 90.0286 102.598 88.7634 101.45C88.7634 101.45 88.7634 101.259 88.7634 101.45L88.7967 101.45Z" fill="black"/>
<path d="M91.5929 102.024C94.2515 104.017 96.605 106.356 98.5847 108.975L98.4182 108.975C95.9545 106.871 93.8569 104.256 91.493 102.024C91.493 102.024 91.493 101.833 91.493 102.024L91.5929 102.024Z" fill="black"/>
<path d="M97.1868 103.714C98.1523 104.607 99.0512 105.531 99.9835 106.456C100.842 107.244 101.632 108.097 102.347 109.006C102.347 109.006 102.347 109.198 102.347 109.006C101.333 108.173 100.397 107.255 99.5507 106.265C98.7516 105.436 97.9858 104.575 97.1868 103.714C97.1868 103.714 97.1868 103.523 97.1868 103.714Z" fill="black"/>
<path d="M94.6231 103.491C94.4938 103.479 94.3692 103.438 94.2594 103.371C94.1495 103.305 94.0575 103.215 93.9905 103.108L93.9905 102.949C96.1548 102.905 98.285 103.47 100.117 104.575C100.117 104.575 100.117 104.734 100.117 104.575C99.0846 104.256 98.0857 103.746 97.0203 103.491C96.585 103.361 96.1397 103.266 95.6885 103.204C95.6885 103.204 94.0904 103.204 94.7563 103.204L94.6231 103.491Z" fill="black"/>
<path d="M88.763 102.024C91.2501 101.526 93.833 101.703 96.221 102.534C98.2627 102.732 100.158 103.64 101.548 105.085C101.548 105.085 101.548 105.308 101.548 105.085C99.929 103.751 97.9389 102.898 95.8214 102.63C93.5494 101.907 91.1331 101.7 88.763 102.024Z" fill="black"/>
<path d="M73.1479 48.6206C72.8817 52.2387 72.815 55.8678 72.9482 59.4926C73.4906 62.2684 73.7692 65.0856 73.7805 67.9096C73.6124 64.9085 73.279 61.918 72.7817 58.9506C72.7152 55.5241 72.8486 52.0967 73.1812 48.6844L73.1479 48.6206Z" fill="black"/>
<path d="M74.1135 70.1416C74.7128 76.0718 76.4441 81.2049 72.249 86.338C72.249 86.338 71.9494 86.338 72.0492 86.338C74.2239 83.7078 75.2287 80.363 74.846 77.0283C74.6462 74.7646 74.0136 72.5966 74.0469 70.301L74.1135 70.1416Z" fill="black"/>
<path d="M73.4808 74.8286C74.0118 76.9156 74.0106 79.0942 73.4775 81.1806C72.9444 83.2671 71.8949 85.2001 70.4177 86.8165C72.7728 83.2576 73.8485 79.059 73.4808 74.8605L73.4808 74.8286Z" fill="black"/>
<path d="M39.6538 100.143C29.9318 103.331 25.1707 113.374 15.6817 117.583C20.8291 114.759 25.4621 111.152 29.3991 106.902C31.9583 103.647 35.56 101.285 39.6538 100.175C39.6538 100.175 39.6538 100.175 39.6538 100.175L39.6538 100.143Z" fill="black"/>
<path d="M96.354 95.8073C94.968 95.4809 93.627 94.9993 92.3587 94.3726C90.361 93.6712 88.3633 93.161 86.3324 92.5872L86.3324 92.4277C87.887 92.7597 89.4209 93.1748 90.927 93.6712L93.1577 94.4363L94.6227 95.0102C95.1291 95.2748 95.6822 95.4477 96.2541 95.5203L96.354 95.8073Z" fill="black"/>
<path d="M96.1211 97.1144C91.5159 96.2863 87.0015 95.0482 82.6368 93.416C82.6368 93.416 82.6368 93.416 82.6368 93.416C87.0983 94.7551 91.5598 96.0304 95.9546 97.0825L96.1211 97.1144Z" fill="black"/>
<path d="M95.6217 98.8358C91.2935 98.0707 86.9652 97.2736 82.7035 96.3809C87.0318 97.0823 91.36 97.9431 95.655 98.8358L95.6217 98.8358Z" fill="black"/>
<path d="M106.776 114.458C106.185 116.338 105.345 118.138 104.279 119.815C104.279 119.815 104.112 119.815 104.279 119.815C105.078 118.029 105.977 116.244 106.776 114.458C106.776 114.458 106.942 114.458 106.776 114.458Z" fill="black"/>
<path d="M106.276 113.821C105.58 115.662 104.746 117.452 103.779 119.177C103.779 119.177 103.612 119.177 103.779 119.177C104.506 117.354 105.351 115.575 106.309 113.853C106.309 113.853 106.309 113.853 106.309 113.853L106.276 113.821Z" fill="black"/>
<path d="M105.577 113.343C104.739 115.044 103.794 116.694 102.747 118.285C103.586 116.591 104.52 114.941 105.544 113.343C105.544 113.343 105.544 113.343 105.544 113.343L105.577 113.343Z" fill="black"/>
<path d="M104.345 112.96C103.55 114.431 102.649 115.848 101.648 117.2C102.486 115.749 103.409 114.344 104.412 112.992L104.345 112.96Z" fill="black"/>
<path d="M132.579 107.795C129.916 107.642 127.269 107.312 124.655 106.807C127.319 107.004 129.967 107.377 132.579 107.923L132.579 107.795Z" fill="black"/>
<path d="M133.777 106.424L124.555 106.265C127.628 106.004 130.722 106.079 133.777 106.488L133.777 106.424Z" fill="black"/>
<path d="M134.01 105.212C131.18 105.212 128.45 105.404 125.653 105.595C128.406 105.089 131.22 104.96 134.01 105.212C134.01 105.212 134.01 105.212 134.01 105.212Z" fill="black"/>
<path d="M125.187 142.452C123.722 147.84 121.858 155.205 117.063 158.776C121.591 154.79 123.356 147.999 125.154 142.547L125.187 142.452Z" fill="black"/>
<path d="M122.157 147.936C121.169 150.991 119.637 153.86 117.629 156.416C119.411 153.737 120.938 150.909 122.191 147.967C122.191 147.967 122.191 147.967 122.191 147.967L122.157 147.936Z" fill="black"/>
<path d="M120.992 147.361C120.274 150.315 118.823 153.06 116.764 155.364C116.764 155.364 116.598 155.364 116.764 155.364C118.581 152.957 119.986 150.288 120.926 147.457L120.992 147.361Z" fill="black"/>
<path d="M119.195 147.776C118.52 150.155 117.452 152.415 116.032 154.471C117.257 152.322 118.303 150.083 119.161 147.776L119.195 147.776Z" fill="black"/>
<path d="M117.263 149.274C116.797 150.71 116.076 152.058 115.132 153.26C115.941 151.993 116.653 150.671 117.263 149.306C117.263 149.306 117.263 149.306 117.263 149.306L117.263 149.274Z" fill="black"/>
<path d="M84.4349 138.052C83.9086 143.271 84.6258 148.536 86.5325 153.451C86.5325 153.451 86.5325 153.451 86.5325 153.451C84.0789 148.669 83.3304 143.248 84.4016 138.02L84.4349 138.052Z" fill="black"/>
<path d="M85.4671 139.327C85.2706 143.18 85.8936 147.03 87.2983 150.645C85.4175 147.141 84.7861 143.143 85.5004 139.263L85.4671 139.327Z" fill="black"/>
<path d="M86.3327 138.945C86.2257 142.251 86.7099 145.551 87.7644 148.701C86.193 145.661 85.7019 142.213 86.366 138.881L86.3327 138.945Z" fill="black"/>
<path d="M87.4312 139.136C87.3579 141.575 87.7066 144.01 88.4634 146.341C87.4072 144.061 87.0492 141.54 87.4312 139.072C87.4312 139.072 87.5977 139.072 87.4312 139.072L87.4312 139.136Z" fill="black"/>
<path d="M67.1548 124.789C64.4195 126.286 61.316 127.057 58.1653 127.02C61.2688 126.771 64.3071 126.028 67.1548 124.82C67.1548 124.82 67.1548 124.82 67.1548 124.82L67.1548 124.789Z" fill="black"/>
<path d="M66.8223 123.449C64.0067 124.457 61.0799 125.152 58.0991 125.522C60.9957 124.788 63.9256 124.183 66.8223 123.417L66.8223 123.449Z" fill="black"/>
<path d="M65.7231 121.728C63.0771 122.769 60.335 123.569 57.5327 124.119C60.3104 123.493 63.0456 122.705 65.7231 121.76L65.7231 121.728Z" fill="black"/>
<path d="M103.446 120.931C103.32 121.589 103.06 122.218 102.68 122.78C102.832 122.118 103.115 121.491 103.512 120.931L103.446 120.931Z" fill="black"/>
<path d="M102.78 120.962C102.314 121.664 101.848 122.429 101.315 123.099C101.748 122.365 102.281 121.664 102.747 120.962L102.78 120.962Z" fill="black"/>
<path d="M169.802 51.3629C164.841 51.8093 158.948 51.1716 154.287 53.1803C154.287 53.1803 154.287 53.1802 154.287 53.0208C158.815 50.9485 164.974 51.4267 169.868 51.3311L169.802 51.3629Z" fill="black"/>
<path d="M178.525 47.8235C175.959 49.2029 173.127 50.0705 170.201 50.3741C170.201 50.3741 170.201 50.3741 170.201 50.1829C171.567 49.7046 173.031 49.5452 174.43 49.1307C175.828 48.7162 177.16 48.2061 178.558 47.7598L178.525 47.8235Z" fill="black"/>
<path d="M132.345 66.2202C129.28 67.7647 125.789 68.3553 122.357 67.91C120.559 67.6868 116.996 66.8259 116.464 64.7217C117.304 65.5625 118.23 66.3208 119.227 66.9854C120.663 67.5502 122.203 67.8321 123.755 67.8143C126.713 67.9342 129.655 67.3422 132.312 66.0926L132.345 66.2202Z" fill="black"/>
<path d="M116.031 115.798C119.361 120.197 122.957 124.661 126.219 129.22C122.89 124.852 119.361 120.325 116.231 115.766L116.031 115.798Z" fill="black"/>
<path d="M114.4 116.116C117.089 119.715 119.44 123.535 121.425 127.53C121.425 127.53 121.425 127.53 121.425 127.53C119.195 123.673 116.997 119.783 114.5 116.084L114.4 116.116Z" fill="black"/>
<path d="M112.802 115.67C113.678 119.022 114.79 122.314 116.131 125.522C116.131 125.522 116.131 125.522 116.131 125.522C114.557 122.387 113.437 119.062 112.802 115.638C112.802 115.638 112.802 115.638 112.802 115.638L112.802 115.67Z" fill="black"/>
<path d="M112.103 115.67C111.836 118.476 114 120.803 113.767 123.609C113.601 120.867 111.636 118.444 112.069 115.67L112.103 115.67Z" fill="black"/>
<path d="M85.4001 122.429C84.7781 123.608 84.0775 124.748 83.3026 125.841C82.7177 126.853 82.0729 127.832 81.3715 128.774C81.3715 128.774 81.1052 128.774 81.1718 128.774C81.7979 127.59 82.5099 126.45 83.3026 125.362C83.8785 124.341 84.547 123.37 85.3003 122.461L85.4001 122.429Z" fill="black"/>
<path d="M84.8674 121.377C83.3692 123.959 81.7711 126.542 80.073 129.029C80.073 129.188 79.7068 129.029 79.8067 129.029C81.2865 126.399 82.9437 123.864 84.7676 121.441L84.8674 121.377Z" fill="black"/>
<path d="M83.2363 120.771C82.1211 123.474 80.298 125.857 77.9425 127.69C77.9425 127.69 77.7094 127.69 77.776 127.69C78.5418 126.574 79.6072 125.649 80.4396 124.502C81.3524 123.281 82.197 122.014 82.97 120.708L83.2363 120.708L83.2363 120.771Z" fill="black"/>
<path d="M81.5381 121.409C80.7723 122.206 79.9733 122.971 79.2741 123.832C78.5749 124.693 78.0089 125.649 77.2764 126.478C77.2764 126.478 77.0433 126.478 77.0766 126.478C78.075 124.472 79.5589 122.723 81.4049 121.377L81.5381 121.409Z" fill="black"/>
<path d="M78.9412 121.983C78.4703 122.901 77.9131 123.776 77.2764 124.597C77.7358 123.68 78.2819 122.805 78.9079 121.983C78.9079 121.983 78.9079 121.983 78.9079 121.983L78.9412 121.983Z" fill="black"/>
</g>
<defs>
<clipPath id="clip0_12_1724">
<rect width="200" height="200" fill="white" transform="matrix(-1 -1.72866e-08 -1.72866e-08 1 200 0)"/>
</clipPath>
</defs>
</svg>
